#!OML:ASF F:\VICON\USERDATA\INSTALL\Justin_Nancy\Justin_Nancy.ASF
:FULLY-SPECIFIED
:DEGREES
176
root -0.697866 17.0777 4.50902 14.0415 81.5943 6.04634
lowerback 9.40144 1.65519 -0.19917
upperback -0.507215 2.27755 1.4077
thorax -5.87408 1.15447 1.25595
lowerneck -18.0739 -3.77163 -9.07164
upperneck 21.415 -3.48833 4.13298
head 10.0571 -1.81763 2.48631
rclavicle 7.7526e-015 0
rhumerus -34.3197 -9.61119 -78.691
rradius 32.8438
rwrist 3.05603
rhand -20.4054 13.2208
rfingers 7.12502
rthumb 5.94847 -16.6757
lclavicle 7.7526e-015 0
lhumerus -42.1291 31.561 68.404
lradius 19.2386
lwrist -17.2293
lhand -16.4117 24.2681
lfingers 7.12502
lthumb 9.80301 54.0199
rfemur -21.0803 -8.15584 12.3271
rtibia 70.6273
rfoot -7.57019 -3.98464
rtoes -7.67401
lfemur -23.7206 -3.47078 -36.2411
ltibia 31.0272
lfoot -11.7939 -0.895999
ltoes 23.2015
177
root -0.531812 17.0641 4.59541 16.646 81.687 8.69809
lowerback 9.4368 1.73331 -0.289806
upperback -0.543369 2.34991 1.08683
thorax -5.92356 1.18639 0.959637
lowerneck -17.9263 -3.85481 -8.48661
upperneck 21.4467 -3.76166 4.02899
head 10.0442 -1.9082 2.31532
rclavicle -3.05134e-014 1.03368e-014
rhumerus -34.5165 -11.1908 -78.635
rradius 32.8232
rwrist 3.09423
rhand -20.3248 13.1007
rfingers 7.12502
rthumb 6.02625 -16.7936
lclavicle -3.05134e-014 1.03368e-014
lhumerus -41.6042 30.7846 68.8373
lradius 18.7225
lwrist -17.8603
lhand -16.623 24.3424
lfingers 7.12502
lthumb 9.59913 54.1037
rfemur -23.3089 -7.94675 11.7348
rtibia 71.1809
rfoot -8.48233 -4.2015
rtoes -6.84745
lfemur -23.2103 -3.65698 -36.4357
ltibia 31.4353
lfoot -12.472 -0.751838
ltoes 23.4959
178
root -0.360756 17.0426 4.69522 17.4312 81.6781 9.70753
lowerback 9.52116 1.77142 -0.533374
upperback -0.438196 2.37005 1.04523
thorax -5.86918 1.2028 1.04923
lowerneck -17.8685 -3.93939 -8.6126
upperneck 21.3734 -3.91114 4.27854
head 10.0254 -1.95878 2.40329
rclavicle -2.33572e-014 1.03368e-014
rhumerus -34.4734 -12.1172 -78.4338
rradius 32.7737
rwrist 3.62285
rhand -19.4426 12.5954
rfingers 7.12502
rthumb 6.87787 -17.2729
lclavicle -2.33572e-014 1.03368e-014
lhumerus -41.622 31.398 68.644
lradius 18.3579
lwrist -19.6069
lhand -16.9002 24.3934
lfingers 7.12502
lthumb 9.33166 54.1669
rfemur -25.1903 -7.32301 11.48
rtibia 71.3929
rfoot -9.4846 -4.56074
rtoes -6.70904
lfemur -22.5478 -3.43384 -36.4786
ltibia 31.9146
lfoot -13.3159 -0.477236
ltoes 21.523
179
root -0.185712 17.0177 4.78843 18.7372 81.6549 11.1879
lowerback 9.60537 1.70537 -0.919654
upperback -0.389537 2.23966 1.07462
thorax -5.87866 1.15081 1.31449
lowerneck -17.9853 -3.9344 -8.75649
upperneck 21.4387 -3.87859 4.37916
head 10.0738 -1.94349 2.46712
rclavicle -8.44835e-015 1.59028e-015
rhumerus -34.3976 -12.5367 -78.1391
rradius 32.64
rwrist 4.68995
rhand -18.3396 12.0736
rfingers 7.12502
rthumb 7.9426 -17.7572
lclavicle -8.44835e-015 1.59028e-015
lhumerus -42.0327 32.6605 68.0791
lradius 18.0187
lwrist -21.438
lhand -16.5049 24.1866
lfingers 7.12502
lthumb 9.71304 53.9426
rfemur -27.0887 -6.65521 11.0899
rtibia 71.3416
rfoot -10.4059 -5.04198
rtoes -6.01332
lfemur -21.9049 -4.04936 -36.5138
ltibia 32.3702
lfoot -14.0784 0.42795
ltoes 19.5704
180
root -0.0103056 16.9918 4.87516 21.1642 81.7739 13.7942
lowerback 9.73618 1.62085 -1.29244
upperback -0.379562 2.08012 1.02543
thorax -5.94867 1.08301 1.4931
lowerneck -18.318 -3.89068 -9.20951
upperneck 21.888 -3.7789 4.86755
head 10.3105 -1.87645 2.73481
rclavicle -3.97569e-016 -1.59028e-015
rhumerus -34.5042 -13.4426 -77.5665
rradius 32.4451
rwrist 7.02515
rhand -16.756 12.0336
rfingers 7.12502
rthumb 9.47078 -17.7335
lclavicle -3.97569e-016 -1.59028e-015
lhumerus -41.769 32.2229 68.7905
lradius 17.738
lwrist -20.8316
lhand -16.2189 23.9676
lfingers 7.12502
lthumb 9.98893 53.7105
rfemur -28.9041 -6.28553 10.5018
rtibia 71.0626
rfoot -11.3108 -5.35072
rtoes -4.95898
lfemur -21.1959 -4.78104 -36.6965
ltibia 32.8032
lfoot -14.6047 1.24506
ltoes 17.0141
181
root 0.170157 16.968 4.97444 24.7036 81.8638 17.6593
lowerback 9.9776 1.64258 -1.86929
upperback -0.330558 2.02658 0.835208
thorax -6.04503 1.07131 1.62126
lowerneck -18.5874 -3.93418 -9.59527
upperneck 22.3579 -3.87767 5.55282
head 10.5623 -1.87114 3.0386
rclavicle 2.68359e-015 7.95139e-016
rhumerus -34.725 -14.0431 -77.5447
rradius 32.4099
rwrist 7.02957
rhand -16.5483 11.9475
rfingers 7.12502
rthumb 9.67119 -17.8104
lclavicle 2.68359e-015 7.95139e-016
lhumerus -41.337 31.6099 69.4508
lradius 17.5115
lwrist -20.1939
lhand -15.8833 24.0422
lfingers 7.12502
lthumb 10.3128 53.7694
rfemur -30.44 -5.91796 9.75841
rtibia 70.542
rfoot -12.1225 -5.29705
rtoes -4.26188
lfemur -20.2402 -4.37262 -37.1019
ltibia 33.1369
lfoot -15.4424 1.16729
ltoes 14.7081
182
root 0.35197 16.9418 5.07458 28.4032 81.832 21.5344
lowerback 10.0453 1.61568 -2.63254
upperback -0.284573 1.89736 0.80247
thorax -6.05405 1.03066 2.03572
lowerneck -18.2268 -3.96472 -9.30363
upperneck 21.7824 -3.95329 5.22069
head 10.2779 -1.92324 2.85135
rclavicle 1.03368e-014 -1.59028e-014
rhumerus -34.6159 -12.3242 -78.7064
rradius 32.4584
rwrist 1.58654
rhand -19.5867 11.2341
rfingers 7.12502
rthumb 6.73878 -18.6387
lclavicle 1.03368e-014 -1.59028e-014
lhumerus -41.175 31.5194 70.0408
lradius 17.5017
lwrist -19.813
lhand -15.7966 24.2723
lfingers 7.12502
lthumb 10.3964 53.9953
rfemur -32.1061 -5.248 8.94117
rtibia 69.8371
rfoot -13.016 -4.69273
rtoes -2.39203
lfemur -19.3397 -4.6077 -37.4593
ltibia 33.2344
lfoot -16.2708 1.41704
ltoes 16.8489
183
root 0.531241 16.91 5.16471 33.6215 81.6265 26.8036
lowerback 9.94833 1.59061 -3.48883
upperback -0.211301 1.75992 0.68237
thorax -5.93779 0.985045 2.4165
lowerneck -17.9933 -4.03431 -9.19416
upperneck 21.1894 -4.0155 4.8743
head 10.0169 -1.98494 2.69314
rclavicle 1.18277e-014 3.65764e-014
rhumerus -34.4214 -12.799 -78.4497
rradius 32.1847
rwrist 2.65423
rhand -19.0384 10.8248
rfingers 7.12502
rthumb 7.26813 -19.0303
lclavicle 1.18277e-014 3.65764e-014
lhumerus -40.8829 31.5189 70.6236
lradius 17.5759
lwrist -19.723
lhand -15.6587 24.617
lfingers 7.12502
lthumb 10.5294 54.3332
rfemur -33.882 -4.68728 7.7732
rtibia 68.9153
rfoot -13.8443 -3.98784
rtoes -1.70059
lfemur -18.5263 -5.25262 -38.1166
ltibia 33.1202
lfoot -16.7171 1.75554
ltoes 19.1851
184
root 0.714189 16.8704 5.25631 40.7329 80.3058 34.5243
lowerback 10.3584 1.89828 -5.31276
upperback -0.0388337 1.90434 0.0701051
thorax -6.03983 1.10199 2.76989
lowerneck -18.2857 -4.04661 -9.28304
upperneck 21.5339 -4.06485 5.20249
head 10.2076 -1.97461 2.82053
rclavicle -1.33186e-014 -3.33958e-014
rhumerus -34.4316 -13.6701 -78.3895
rradius 31.9886
rwrist 3.80401
rhand -18.236 10.7656
rfingers 7.12502
rthumb 8.04257 -19.0613
lclavicle -1.33186e-014 -3.33958e-014
lhumerus -40.2152 30.7091 71.3327
lradius 17.4708
lwrist -19.6107
lhand -15.4068 24.8024
lfingers 7.12502
lthumb 10.7724 54.5061
rfemur -35.2028 -4.00263 5.41606
rtibia 67.7221
rfoot -14.5123 -3.22891
rtoes -3.57283
lfemur -17.1084 -5.30959 -39.8935
ltibia 32.8627
lfoot -17.162 2.31034
ltoes 20.3486
185
root 0.903925 16.8454 5.37396 43.0113 80.3348 37.0264
lowerback 10.4571 1.81089 -5.82413
upperback 0.0360025 1.71408 -0.11936
thorax -6.00934 1.02 2.88724
lowerneck -18.4858 -3.87478 -8.92527
upperneck 21.7501 -3.94881 5.33269
head 10.3061 -1.87415 2.82711
rclavicle -2.80286e-014 7.15625e-015
rhumerus -34.3218 -13.4531 -78.9045
rradius 31.7819
rwrist 3.88524
rhand -18.3279 10.5096
rfingers 7.12502
rthumb 7.95384 -19.3207
lclavicle -2.80286e-014 7.15625e-015
lhumerus -39.4804 29.372 72.3705
lradius 17.4529
lwrist -18.6703
lhand -15.5149 25.1068
lfingers 7.12502
lthumb 10.6681 54.816
rfemur -36.3115 -3.40967 4.82323
rtibia 66.0708
rfoot -15.2648 -2.70907
rtoes -1.1578
lfemur -15.8125 -4.62811 -40.1305
ltibia 32.4429
lfoot -17.9388 3.01827
ltoes 16.0243
186
root 1.1093 16.8541 5.49498 41.2398 81.7012 34.9089
lowerback 9.92569 1.37061 -5.19841
upperback 0.00924975 1.25967 0.368594
thorax -5.6904 0.777207 3.12976
lowerneck -17.7066 -3.77606 -7.933
upperneck 20.5452 -3.91554 4.35653
head 9.6843 -1.89924 2.31119
rclavicle 1.75924e-014 -3.18055e-015
rhumerus -34.0984 -12.4747 -79.3412
rradius 31.5601
rwrist 3.42207
rhand -18.7669 10.5108
rfingers 7.12502
rthumb 7.53018 -19.3352
lclavicle 1.75924e-014 -3.18055e-015
lhumerus -38.9707 28.1574 73.6789
lradius 17.7924
lwrist -16.5368
lhand -15.7853 25.704
lfingers 7.12502
lthumb 10.4073 55.4264
rfemur -37.2398 -2.87381 5.98151
rtibia 63.7246
rfoot -15.8596 -2.8324
rtoes 6.40559
lfemur -14.9212 -3.93009 -38.7467
ltibia 32.0402
lfoot -18.7037 3.72205
ltoes 8.20776
187
root 1.29337 16.8406 5.53395 47.1357 80.9257 41.0237
lowerback 10.1483 1.32976 -5.98072
upperback 0.0762678 1.08046 -0.0976634
thorax -5.73507 0.706188 3.10421
lowerneck -18.4476 -3.71598 -8.98741
upperneck 21.3498 -3.76019 5.52701
head 10.1438 -1.77083 2.92889
rclavicle -8.34896e-015 -5.1684e-015
rhumerus -33.9007 -12.4238 -79.5549
rradius 31.3275
rwrist 3.88526
rhand -18.9649 10.538
rfingers 7.12502
rthumb 7.33904 -19.3148
lclavicle -8.34896e-015 -5.1684e-015
lhumerus -38.352 26.7315 74.927
lradius 18.2021
lwrist -14.8174
lhand -16.0211 25.8302
lfingers 7.12502
lthumb 10.1798 55.5639
rfemur -38.3141 -2.77192 4.25969
rtibia 61.2924
rfoot -15.617 -2.67749
rtoes 6.64707
lfemur -13.7712 -4.81157 -39.9449
ltibia 31.5218
lfoot -19.0244 4.96538
ltoes 9.80099
188
root 1.4938 16.8933 5.63345 45.328 82.1293 39.4432
lowerback 10.3753 1.13828 -5.21874
upperback 0.173476 0.918574 0.150552
thorax -5.73392 0.606787 2.95949
lowerneck -18.0956 -3.88509 -8.56346
upperneck 20.5331 -4.04041 5.10282
head 9.791 -1.91923 2.65737
rclavicle 7.95139e-016 0
rhumerus -33.8696 -12.7139 -79.6414
rradius 31.2207
rwrist 4.47768
rhand -19.1424 10.4959
rfingers 7.12502
rthumb 7.16771 -19.3627
lclavicle 7.95139e-016 0
lhumerus -37.8596 25.8379 75.667
lradius 18.5167
lwrist -14.5838
lhand -15.5948 25.5798
lfingers 7.12502
lthumb 10.5911 55.2929
rfemur -38.3306 -2.36169 5.38192
rtibia 58.2237
rfoot -15.4483 -4.09126
rtoes -4.27752
lfemur -12.3529 -4.93329 -38.3923
ltibia 30.9856
lfoot -19.8153 4.15168
ltoes 12.3166
